# xmcd CD database file
#
# Track frame offsets:
#	150
#	13027
#	29878
#	46608
#	58761
#	72544
#	85296
#	99610
#	115237
#	131361
#	147051
#	160919
#	178849
#	189964
#	204629
#	214855
#	228253
#	238123
#	251369
#	260360
#	274869
#	283652
#	297832
#	312697
#	323829
#	337376
#	349323
#
# Disc length: 4780 seconds
#
# Revision: 2
# Processed by: cddbd v1.5.2PL0 Copyright (c) Steve Scherf et al.
# Submitted via: CDex 1.70beta3
#
DISCID=ab12aa1b
DTITLE=The Four Freshmen - Four Original Albums plus bonus tracks 1959-1960 [CD1]
DYEAR=1959
DGENRE=Jazz
TTITLE0=Love Lost
TTITLE1=Spring Is Here
TTITLE2=I'm A Fool To Want You
TTITLE3=I Should Care
TTITLE4=I Could Have Told You
TTITLE5=If I Ever Love Again
TTITLE6=The Gal That Got Away
TTITLE7=When Your Lover Has Gone
TTITLE8=I Wish I Didn't Love You So
TTITLE9=I Wish I Knew
TTITLE10=I'll Never Smile Again
TTITLE11=Little Girl Blue
TTITLE12=Rain
TTITLE13=The More I See You
TTITLE14=This October
TTITLE15=Don't Worry 'Bout Me
TTITLE16=It's A Pity To Say Goodnight
TTITLE17=Oh Lonely Winter
TTITLE18=It All Depends On You
TTITLE19=Nancy
TTITLE20=I Never Knew
TTITLE21=Invitation
TTITLE22=I Understand
TTITLE23=Come Rain Or Come Shine
TTITLE24=Baltimore Oriole
TTITLE25=Nights Are Longer
TTITLE26=Till
EXTD=YEAR: 1959
EXTT0=
EXTT1=
EXTT2=
EXTT3=
EXTT4=
EXTT5=
EXTT6=
EXTT7=
EXTT8=
EXTT9=
EXTT10=
EXTT11=
EXTT12=
EXTT13=
EXTT14=
EXTT15=
EXTT16=
EXTT17=
EXTT18=
EXTT19=
EXTT20=
EXTT21=
EXTT22=
EXTT23=
EXTT24=
EXTT25=
EXTT26=
PLAYORDER=
